<svg xmlns="http://www.w3.org/2000/svg" viewBox="0 0 220 220" width="220" height="220" role="img" aria-label="Myla Logo – zwei Sprechblasen">
  <defs>
    <linearGradient id="g1a" x1="0" y1="0" x2="1" y2="1">
      <stop offset="0" stop-color="#4ECDC4"/>
      <stop offset="1" stop-color="#5B8DEF"/>
    </linearGradient>
    <linearGradient id="g1b" x1="0" y1="0" x2="1" y2="1">
      <stop offset="0" stop-color="#FF7E9D"/>
      <stop offset="1" stop-color="#FFB05C"/>
    </linearGradient>
  </defs>
  <rect width="220" height="220" rx="48" fill="#FFFFFF"/>
  <!-- hintere Sprechblase -->
  <g>
    <path d="M44 54 h96 a26 26 0 0 1 26 26 v34 a26 26 0 0 1 -26 26 h-58 l-22 22 v-22 h-16 a26 26 0 0 1 -26 -26 v-34 a26 26 0 0 1 26 -26 z" fill="url(#g1a)"/>
    <circle cx="70" cy="97" r="7" fill="#FFFFFF"/>
    <circle cx="95" cy="97" r="7" fill="#FFFFFF"/>
    <circle cx="120" cy="97" r="7" fill="#FFFFFF"/>
  </g>
  <!-- vordere Sprechblase -->
  <g transform="translate(64 70)">
    <path d="M28 30 h78 a24 24 0 0 1 24 24 v30 a24 24 0 0 1 -24 24 h-14 v20 l-22 -20 h-42 a24 24 0 0 1 -24 -24 v-30 a24 24 0 0 1 24 -24 z" fill="url(#g1b)"/>
  </g>
</svg>
